# AST/ASF file generated using VICON BodyLanguage
# -----------------------------------------------
:version 1.10
:name VICON
:units
  mass 1.0
  length 0.45
  angle deg
:documentation
   .ast/.asf automatically generated from VICON data using
   VICON BodyBuilder and BodyLanguage model FoxedUp or BRILLIANT.MOD
:root
   order TX TY TZ RX RY RZ
   axis XYZ
   position 0 0 0  
   orientation 0 0 0 
:bonedata
  begin
     id 1 
     name lhipjoint
     direction 0.570549 -0.739093 0.358072 
     length 2.41801 
     axis 0 0 0  XYZ
  end
  begin
     id 2 
     name lfemur
     direction 0.34202 -0.939693 0  
     length 7.44434  
     axis 0 0 20  XYZ
    dof rx ry rz
    limits (-160.0 20.0)
           (-70.0 70.0)
           (-60.0 70.0)
  end
  begin
     id 3 
     name ltibia
     direction 0.34202 -0.939693 0   
     length 7.60047   
     axis 0 0 20   XYZ
    dof rx
    limits (-10.0 170.0)
  end
  begin
     id 4 
     name lfoot
     direction 0.0909041 -0.249757 0.964032   
     length 2.03437   
     axis -90 7.62852e-016 20   XYZ
    dof rx rz
    limits (-45.0 90.0)
           (-70.0 20.0)
  end
  begin
     id 5 
     name ltoes
     direction 1.53547e-011 -4.2174e-011 1   
     length 1.02054   
     axis -90 7.62852e-016 20   XYZ
    dof rx
    limits (-90.0 20.0)
  end
  begin
     id 6 
     name rhipjoint
     direction -0.558096 -0.746754 0.361784   
     length 2.3932  
     axis 0 0 0  XYZ 
  end
  begin
     id 7 
     name rfemur
     direction -0.34202 -0.939693 0   
     length 7.3886   
     axis 0 0 -20   XYZ
    dof rx ry rz
    limits (-160.0 20.0)
           (-70.0 70.0)
           (-70.0 60.0)
  end
  begin
     id 8 
     name rtibia
     direction -0.34202 -0.939693 0   
     length 7.4839   
     axis 0 0 -20   XYZ
    dof rx
    limits (-10.0 170.0)
 end
 begin
     id 9 
     name rfoot
     direction -0.114619 -0.314914 0.942174   
     length 2.25127  
     axis -90 -7.62852e-016 -20   XYZ
    dof rx rz
    limits (-45.0 90.0)
           (-20.0 70.0)
  end
  begin
     id 10 
     name rtoes
     direction -1.53518e-011 -4.21881e-011 1   
     length 1.11821   
     axis -90 -7.62852e-016 -20   XYZ
    dof rx
    limits (-90.0 20.0)
  end
  begin
     id 11 
     name lowerback
     direction -0.00902269 0.996426 -0.0839821   
     length 2.25052   
     axis 0 0 0   XYZ
    dof rx ry rz
    limits (-20.0 45.0)
           (-30.0 30.0)
           (-30.0 30.0)
  end
  begin
     id 12 
     name upperback
     direction 0.0370973 0.999169 -0.0168941   
     length 2.24876   
     axis 0 0 0   XYZ
    dof rx ry rz
    limits (-20.0 45.0)
           (-30.0 30.0)
           (-30.0 30.0)
  end
  begin
     id 13 
     name thorax
     direction 0.0402726 0.998931 0.0227027   
     length 2.26408   
     axis 0 0 0   XYZ
    dof rx ry rz
    limits (-20.0 45.0)
           (-30.0 30.0)
           (-30.0 30.0)
  end
  begin
     id 14 
     name lowerneck
     direction -0.0733697 0.98508 0.155675   
     length 1.58204   
     axis 0 0 0   XYZ
    dof rx ry rz
    limits (-20.0 45.0)
           (-30.0 30.0)
           (-30.0 30.0)
  end
  begin
     id 15 
     name upperneck
     direction 0.0426554 0.993501 -0.105526   
     length 1.61222   
     axis 0 0 0   XYZ
    dof rx ry rz
    limits (-20.0 45.0)
           (-30.0 30.0)
           (-30.0 30.0)
  end
  begin
     id 16
     name head
     direction 0.020792 0.998384 -0.0528868  
     length 1.61527  
     axis 0 0 0   XYZ
    dof rx ry rz
    limits (-20.0 45.0)
           (-30.0 30.0)
           (-30.0 30.0)
  end
  begin
     id 17 
     name lclavicle
     direction 0.967109 0.155462 -0.201325  
     length 3.59357  
     axis 0 0 0   XYZ
    dof ry rz
    limits (-20.0 10.0)
           (0.0 20.0)
  end
  begin
     id 18 
     name lhumerus
     direction 1 -4.48968e-011 2.38195e-027   
     length 5.38154   
     axis 180 -30 -90   XYZ
    dof rx ry rz
    limits (-60.0 90.0)
           (-90.0 90.0)
           (-90.0 90.0)
  end
  begin
     id 19
     name lradius
     direction 1 -4.48961e-011 4.85371e-027   
     length 3.33312   
     axis 180 -30 -90   XYZ
    dof rx
    limits (-10.0 170.0)
  end
  begin
     id 20
     name lwrist
     direction 1 -4.48961e-011 4.76515e-027   
     length 1.66656   
     axis -3.27502e-015 90 90   XYZ
    dof ry
    limits (-180.0 0.0)
 end
  begin
     id 21 
     name lhand
     direction 1 -4.48951e-011 9.53074e-027   
     length 0.710789   
     axis -6.08098e-015 90 90   XYZ
    dof rx rz
    limits (-90.0 90.0)
           (-45.0 45.0)
  end
  begin
     id 22 
     name lfingers
     direction 1 -4.48953e-011 1.90613e-026   
     length 0.573057   
     axis -1.21619e-014 90 90   XYZ
    dof rx
    limits (0.0 90.0)
  end
  begin
     id 23
     name lthumb
     direction 0.707107 -6.34973e-011 0.707107   
     length 0.822798   
     axis -90 45 -9.86923e-015   XYZ
    dof rx rz
    limits (-45.0 45.0)
           (-45.0 45.0)
  end
  begin
     id 24 
     name rclavicle
     direction -0.9585 0.265289 -0.104398   
     length 3.42039  
     axis 0 0 0   XYZ 
    dof ry rz
    limits (-10.0 20.0)
           (-20.0 0.0)
  end
  begin
     id 25 
     name rhumerus
     direction -1 -4.48977e-011 2.21478e-027  
     length 5.16954   
     axis 180 30 90   XYZ
    dof rx ry rz
    limits (-90.0 60.0)
           (-90.0 90.0)
           (-90.0 90.0)
  end
  begin
     id 26 
     name rradius
     direction -1 -4.48967e-011 5.63677e-027   
     length 3.38287   
     axis 180 30 90   XYZ
    dof rx
    limits (-10.0 170.0)
  end
  begin
     id 27 
     name rwrist
     direction -1 -4.48967e-011 4.76501e-027   
     length 1.69144   
     axis -3.27502e-015 -90 -90   XYZ
    dof ry
    limits (-180.0 0.0)
  end
  begin
     id 28
     name rhand
     direction -1 -4.48902e-011 9.53292e-027   
     length 0.817967   
     axis -6.08098e-015 -90 -90   XYZ
    dof rx rz
    limits (-90.0 90.0)
           (-45.0 45.0)
  end
  begin
     id 29
     name rfingers
     direction -1 -4.49012e-011 1.90561e-026   
     length 0.659466   
     axis -1.21619e-014 -90 -90   XYZ
    dof rx
    limits (0.0 90.0)
  end
  begin
     id 30
     name rthumb
     direction -0.707107 -6.34944e-011 0.707107   
     length 0.946865   
     axis -90 -45 9.86923e-015   XYZ
    dof rx rz
    limits (-45.0 45.0)
           (-45.0 45.0)
  end
:hierarchy
  begin
    root lhipjoint rhipjoint lowerback
    lhipjoint lfemur
    lfemur ltibia
    ltibia lfoot
    lfoot ltoes
    rhipjoint rfemur
    rfemur rtibia
    rtibia rfoot
    rfoot rtoes
    lowerback upperback
    upperback thorax
    thorax lowerneck lclavicle rclavicle
    lowerneck upperneck
    upperneck head
    lclavicle lhumerus
    lhumerus lradius
    lradius lwrist
    lwrist lhand lthumb
    lhand lfingers
    rclavicle rhumerus
    rhumerus rradius
    rradius rwrist
    rwrist rhand rthumb
    rhand rfingers
  end

#!OML:ASF F:\twosubjects\two\wednesday\Session 1\Justin1.ASF
:FULLY-SPECIFIED
:DEGREES
81
root 1.5407 17.6681 12.85 -181.559 -1.731 -184.884
lowerback 2.80815 -2.85034 -8.5094
upperback 0.696493 -4.05277 1.54185
thorax -0.148781 -2.05722 6.47358
lowerneck -15.8634 -2.72971 -8.84816
upperneck 17.9444 -2.94326 7.87514
head 8.44835 -1.0894 3.79669
rclavicle -7.66066e-014 5.56597e-015
rhumerus -48.7702 -17.8017 -69.5051
rradius 21.8306
rwrist -3.86816
rhand -13.2789 16.9233
rfingers 7.12502
rthumb 12.8243 -12.6628
lclavicle -7.66066e-014 5.56597e-015
lhumerus 4.27296 12.777 88.2279
lradius 31.4899
lwrist -1.31269
lhand -2.7897 41.7148
lfingers 7.12502
lthumb 22.9158 70.373
rfemur -29.2493 -4.07272 11.3881
rtibia 40.2806
rfoot -22.5827 -14.1346
rtoes 5.51851
lfemur -6.38144 0.504584 -30.3297
ltibia 28.9841
lfoot -15.9631 -2.12308
ltoes 4.73814
82
root 1.54894 17.6687 12.7393 -181.601 -1.68445 -184.995
lowerback 2.95437 -2.89539 -8.80995
upperback 0.763359 -4.13608 1.52049
thorax -0.126528 -2.10438 6.6276
lowerneck -15.6806 -2.67203 -8.23807
upperneck 17.5936 -2.92093 7.3434
head 8.27813 -1.10038 3.50652
rclavicle 4.54223e-014 -8.74653e-015
rhumerus -49.2381 -17.7453 -69.2096
rradius 21.7345
rwrist -3.91508
rhand -13.3686 16.6607
rfingers 7.12502
rthumb 12.7378 -12.9307
lclavicle 4.54223e-014 -8.74653e-015
lhumerus 5.57187 12.1828 87.7216
lradius 31.6868
lwrist -0.768319
lhand -3.29497 43.7028
lfingers 7.12502
lthumb 22.4308 72.4203
rfemur -30.1288 -3.51642 11.2411
rtibia 38.2344
rfoot -22.5707 -14.4189
rtoes 6.31731
lfemur -5.70238 0.344759 -30.4345
ltibia 28.5215
lfoot -16.1393 -1.86701
ltoes 5.67218
83
root 1.55818 17.6704 12.6289 -181.703 -1.60176 -185.109
lowerback 3.17739 -3.11294 -9.12614
upperback 0.83199 -4.45856 1.61503
thorax -0.0896995 -2.27353 6.91848
lowerneck -15.8008 -2.48384 -8.55927
upperneck 17.5523 -2.62538 7.57355
head 8.26749 -0.960464 3.6733
rclavicle 1.02623e-014 -1.03368e-014
rhumerus -49.5191 -17.134 -69.0315
rradius 21.8574
rwrist -3.92613
rhand -13.3744 16.2399
rfingers 7.12502
rthumb 12.7323 -13.3519
lclavicle 1.02623e-014 -1.03368e-014
lhumerus 6.80176 12.3283 87.1667
lradius 31.8759
lwrist -0.149069
lhand 0.753682 44.9247
lfingers 7.12502
lthumb 26.3121 73.1198
rfemur -30.8657 -3.04116 11.1319
rtibia 36.2011
rfoot -22.4949 -14.5162
rtoes 3.91902
lfemur -4.87311 0.292339 -30.5386
ltibia 28.0016
lfoot -16.3128 -1.57976
ltoes 5.93433
84
root 1.55863 17.6757 12.5155 -181.582 -1.43843 -185.148
lowerback 3.37298 -3.24835 -9.27441
upperback 0.694364 -4.66462 1.769
thorax -0.279267 -2.36206 7.18512
lowerneck -16.0864 -2.33965 -9.26245
upperneck 17.8641 -2.33621 8.07704
head 8.41178 -0.814193 4.00711
rclavicle -4.63417e-014 -3.18055e-015
rhumerus -50.0001 -16.5874 -68.614
rradius 21.9878
rwrist -3.88493
rhand -13.4122 16.071
rfingers 7.12502
rthumb 12.6958 -13.5231
lclavicle -4.63417e-014 -3.18055e-015
lhumerus 7.99329 12.7827 86.9301
lradius 31.9466
lwrist 0.0760742
lhand -0.428255 40.3063
lfingers 7.12502
lthumb 25.1801 68.6654
rfemur -31.7988 -2.59848 11.0982
rtibia 34.1695
rfoot -22.4756 -14.3081
rtoes 2.39846
lfemur -4.27548 0.230491 -30.6123
ltibia 27.4518
lfoot -16.4556 -1.22107
ltoes 5.68557
85
root 1.55186 17.6855 12.3966 -181.388 -1.19038 -185.075
lowerback 3.15909 -3.26215 -9.0305
upperback 0.678548 -4.65307 1.72747
thorax -0.201334 -2.35809 6.98874
lowerneck -16.122 -2.29813 -9.25634
upperneck 17.902 -2.29026 8.13919
head 8.42696 -0.784575 4.03424
rclavicle -5.7573e-014 -4.77083e-015
rhumerus -50.4924 -16.9281 -67.9027
rradius 21.6983
rwrist -3.43576
rhand -13.4809 16.4646
rfingers 7.12502
rthumb 12.6296 -13.1336
lclavicle -5.7573e-014 -4.77083e-015
lhumerus 9.3466 12.7642 86.5916
lradius 31.9024
lwrist 0.0487928
lhand -0.558419 38.0517
lfingers 7.12502
lthumb 25.0554 66.4282
rfemur -32.8455 -2.42732 11.2528
rtibia 32.1899
rfoot -22.2345 -13.7328
rtoes 1.59481
lfemur -3.74725 -0.0122286 -30.6453
ltibia 26.8505
lfoot -16.6096 -0.614201
ltoes 5.08651
86
root 1.55193 17.701 12.2784 -181.47 -1.0368 -184.617
lowerback 3.15915 -3.39664 -8.50712
upperback 0.817345 -4.81539 1.85558
thorax -0.0589447 -2.45318 6.82275
lowerneck -16.1801 -2.19992 -9.15936
upperneck 17.7769 -2.13389 7.90985
head 8.37676 -0.731325 3.95387
rclavicle 2.22639e-014 1.11319e-014
rhumerus -50.6192 -17.0893 -67.211
rradius 21.2553
rwrist -2.88371
rhand -13.3455 16.6878
rfingers 7.12502
rthumb 12.7602 -12.9023
lclavicle 2.22639e-014 1.11319e-014
lhumerus 10.534 12.8427 86.1135
lradius 32.1324
lwrist 0.340828
lhand -1.33163 38.3694
lfingers 7.12502
lthumb 24.3143 66.8473
rfemur -33.5748 -2.31263 11.8578
rtibia 30.2795
rfoot -21.7807 -13.1416
rtoes 1.29877
lfemur -2.89132 -0.200336 -30.2013
ltibia 26.2184
lfoot -16.7503 -0.232834
ltoes 4.64437
87
root 1.55852 17.7004 12.1653 -181.685 -0.989476 -184.86
lowerback 3.75795 -3.54565 -9.04677
upperback 0.777112 -5.09253 2.041
thorax -0.321137 -2.58225 7.37147
lowerneck -16.3538 -2.04217 -9.32602
upperneck 17.7995 -1.8092 7.61369
head 8.38431 -0.622093 3.91876
rclavicle -1.14301e-014 -1.90833e-014
rhumerus -50.734 -16.1555 -66.979
rradius 21.2862
rwrist -3.33522
rhand -13.3492 16.2344
rfingers 7.12502
rthumb 12.7566 -13.3559
lclavicle -1.14301e-014 -1.90833e-014
lhumerus 11.441 13.2641 85.8455
lradius 32.4652
lwrist 0.726
lhand -2.31968 39.5945
lfingers 7.12502
lthumb 23.3667 68.1961
rfemur -34.1955 -2.22214 11.6508
rtibia 28.4491
rfoot -21.2472 -12.4415
rtoes 1.94533
lfemur -1.90977 0.0545809 -30.4103
ltibia 25.5653
lfoot -16.7621 -0.381583
ltoes 5.26059
88
root 1.56447 17.6882 12.0536 -181.684 -0.853979 -185.242
lowerback 3.98979 -3.60255 -9.6373
upperback 0.752416 -5.21666 2.06836
thorax -0.396575 -2.64109 7.75446
lowerneck -16.4124 -1.88299 -9.24826
upperneck 17.7016 -1.56336 7.38722
head 8.33661 -0.52626 3.85428
rclavicle 8.72168e-015 -2.38542e-014
rhumerus -50.9727 -15.5922 -66.8684
rradius 21.4137
rwrist -3.88502
rhand -13.3867 16.0836
rfingers 7.12502
rthumb 12.7205 -13.509
lclavicle 8.72168e-015 -2.38542e-014
lhumerus 12.5579 13.5072 85.5887
lradius 32.6609
lwrist 0.930191
lhand -2.8306 40.3257
lfingers 7.12502
lthumb 22.8765 68.9888
rfemur -35.0407 -2.17315 11.3357
rtibia 26.723
rfoot -20.9438 -11.4378
rtoes 3.50846
lfemur -1.16789 0.194693 -30.8144
ltibia 24.8869
lfoot -16.715 -0.275058
ltoes 5.13346
89
root 1.56743 17.6886 11.9433 -181.581 -0.654185 -185.024
lowerback 3.92161 -3.6041 -9.44121
upperback 0.804596 -5.20355 2.14842
thorax -0.316493 -2.64213 7.7206
lowerneck -16.3936 -1.84396 -9.28878
upperneck 17.6054 -1.50228 7.38653
head 8.29558 -0.501802 3.86547
rclavicle 3.2054e-014 1.27222e-014
rhumerus -51.284 -15.7621 -66.3348
rradius 21.3091
rwrist -3.60969
rhand -12.7633 16.3946
rfingers 7.12502
rthumb 13.3214 -13.1596
lclavicle 3.2054e-014 1.27222e-014
lhumerus 13.7121 13.4919 85.3054
lradius 32.8429
lwrist 1.11119
lhand -2.54086 40.2309
lfingers 7.12502
lthumb 23.1545 68.8593
rfemur -35.9747 -1.98152 11.6993
rtibia 25.2108
rfoot -20.6144 -10.6739
rtoes 3.33051
lfemur -0.50143 -0.121282 -30.6624
ltibia 24.1739
lfoot -16.6765 0.383539
ltoes 2.71907
90
root 1.56633 17.6975 11.8346 -181.528 -0.666139 -184.924
lowerback 4.01196 -3.71243 -9.33449
upperback 0.827152 -5.35411 2.25009
thorax -0.313009 -2.72062 7.77517
lowerneck -16.3449 -1.83862 -9.46189
upperneck 17.5123 -1.44666 7.33331
head 8.25186 -0.495038 3.87988
rclavicle 1.1281e-014 -3.97569e-014
rhumerus -51.3883 -15.9246 -65.6526
rradius 21.0377
rwrist -2.93343
rhand -13.6253 15.5756
rfingers 7.12502
rthumb 12.4904 -14.0311
lclavicle 1.1281e-014 -3.97569e-014
lhumerus 14.7195 13.6478 84.9743
lradius 33.0549
lwrist 1.24242
lhand -1.86148 40.0309
lfingers 7.12502
lthumb 23.8062 68.5759
rfemur -36.8776 -2.05045 11.9847
rtibia 23.929
rfoot -19.8747 -10.2193
rtoes 1.32719
lfemur 0.253408 -0.364241 -30.6024
ltibia 23.4147
lfoot -16.6438 0.754472
ltoes -0.945852
91
root 1.56482 17.7091 11.7264 -181.47 -0.830606 -184.751
lowerback 4.12959 -3.96591 -9.15312
upperback 0.835371 -5.69896 2.37871
thorax -0.305035 -2.89676 7.81997
lowerneck -16.2747 -1.69516 -9.42917
upperneck 17.3223 -1.21538 7.07572
head 8.15313 -0.412986 3.80764
rclavicle -6.96243e-014 -1.59028e-015
rhumerus -51.2588 -15.8171 -65.2807
rradius 20.7477
rwrist -2.50647
rhand -13.2979 15.2139
rfingers 7.12502
rthumb 12.806 -14.3733
lclavicle -6.96243e-014 -1.59028e-015
lhumerus 15.8079 14.38 84.7455
lradius 33.2122
lwrist 1.02606
lhand -2.05076 40.6683
lfingers 7.12502
lthumb 23.6247 69.2369
rfemur -37.7118 -2.40064 12.4244
rtibia 22.8207
rfoot -19.2759 -9.81635
rtoes -1.7424
lfemur 1.03044 -0.49539 -30.4115
ltibia 22.5611
lfoot -16.6448 0.735051
ltoes -2.04165
92
root 1.56651 17.7191 11.6193 -181.45 -0.765944 -184.925
lowerback 4.12613 -4.04885 -9.29609
upperback 1.00655 -5.81694 2.29575
thorax -0.0945735 -2.97632 7.80288
lowerneck -16.5991 -1.57258 -9.2577
upperneck 17.2104 -1.05656 6.99811
head 8.15716 -0.334399 3.76964
rclavicle -1.26725e-014 5.56597e-015
rhumerus -51.1066 -15.8821 -65.2086
rradius 20.6438
rwrist -2.53668
rhand -12.8198 15.2551
rfingers 7.12502
rthumb 13.2669 -14.3026
lclavicle -1.26725e-014 5.56597e-015
lhumerus 17.6532 15.5884 85.0905
lradius 32.7899
lwrist 0.130997
lhand -2.64381 41.0739
lfingers 7.12502
lthumb 23.0558 69.7147
rfemur -38.5121 -2.4912 12.4586
rtibia 21.9032
rfoot -18.876 -9.3088
rtoes -3.13273
lfemur 1.82702 -0.476126 -30.5878
ltibia 21.6283
lfoot -16.5767 0.672042
ltoes 0.0449814
